<?xml version="1.0" standalone="no"?>
<!DOCTYPE svg PUBLIC "-//W3C//DTD SVG 20010904//EN"
 "http://www.w3.org/TR/2001/REC-SVG-20010904/DTD/svg10.dtd">
<svg version="1.0" xmlns="http://www.w3.org/2000/svg"
 width="822.000000pt" height="1024.000000pt" viewBox="0 0 822.000000 1024.000000"
 preserveAspectRatio="xMidYMid meet">

<g transform="translate(0.000000,1024.000000) scale(0.100000,-0.100000)"
fill="#000000" stroke="none">
<path d="M3990 10209 c-524 -42 -1039 -225 -1498 -531 -1036 -693 -1775 -1946
-2027 -3438 -43 -255 -61 -412 -80 -704 -35 -529 -1 -1071 99 -1617 280 -1512
1089 -2791 2170 -3428 1104 -650 2394 -567 3441 222 194 147 479 411 620 577
209 245 361 458 527 740 650 1102 925 2543 752 3930 -114 913 -409 1753 -867
2470 -349 546 -832 1029 -1322 1325 -575 346 -1202 503 -1815 454z m491 -29
c617 -61 1201 -311 1731 -742 131 -106 420 -392 530 -523 850 -1017 1305
-2414 1275 -3910 -6 -306 -15 -427 -48 -695 -141 -1137 -564 -2158 -1224
-2950 -123 -147 -406 -424 -555 -544 -376 -300 -755 -502 -1173 -622 -771
-222 -1588 -118 -2312 294 -279 159 -531 356 -795 621 -275 276 -479 539 -683
880 -449 748 -721 1619 -809 2591 -18 195 -18 926 0 1115 117 1245 521 2306
1200 3150 113 139 376 412 510 527 452 389 961 649 1486 757 78 16 184 34 236
40 52 6 109 13 125 15 70 8 411 5 506 -4z"/>
<path d="M3988 6783 c-27 -2 -48 -7 -48 -11 1 -4 220 -166 489 -361 312 -226
503 -359 532 -368 77 -25 281 -129 379 -193 101 -67 151 -106 268 -209 l74
-64 216 217 217 217 -80 76 c-376 352 -881 593 -1425 678 -103 16 -514 28
-622 18z"/>
<path d="M3039 6513 c-644 -324 -1119 -870 -1344 -1545 -103 -309 -141 -571
-132 -917 6 -240 21 -355 73 -571 228 -934 972 -1690 1906 -1935 260 -68 358
-79 683 -79 256 -1 305 2 420 22 601 104 1101 368 1511 795 515 537 776 1248
733 1997 -7 130 -49 434 -60 444 -2 2 -299 5 -659 7 l-655 4 0 -305 0 -305
383 -3 382 -2 0 -68 c0 -248 -84 -581 -210 -835 -505 -1015 -1728 -1433 -2744
-938 -964 469 -1405 1605 -1010 2600 215 541 649 966 1196 1170 57 21 145 49
196 62 50 13 92 26 92 29 0 3 -91 66 -201 140 -177 118 -335 241 -378 293 -7
9 -17 17 -20 17 -4 0 -77 -35 -162 -77z"/>
<path d="M3782 4750 c-45 -11 -101 -58 -126 -106 -16 -29 -21 -58 -21 -114 0
-64 4 -82 27 -122 48 -81 149 -111 233 -68 21 11 41 17 44 15 10 -11 -21 -111
-41 -132 -16 -17 -33 -23 -65 -23 -39 0 -46 4 -63 33 -18 31 -22 32 -72 31
-65 -2 -70 -16 -33 -80 33 -57 86 -83 165 -84 153 0 225 108 225 340 0 167
-32 248 -114 289 -45 23 -115 33 -159 21z m115 -115 c32 -22 48 -89 34 -137
-15 -47 -44 -68 -97 -68 -34 0 -47 5 -63 27 -41 51 -39 120 4 167 28 30 87 36
122 11z"/>
<path d="M4232 4729 c-83 -42 -119 -156 -109 -348 8 -159 43 -234 123 -267 67
-28 177 -12 227 34 53 48 84 193 73 338 -14 189 -75 264 -213 264 -39 0 -72
-7 -101 -21z m148 -99 c30 -16 40 -67 40 -207 0 -157 -11 -197 -58 -208 -44
-9 -81 4 -97 35 -20 39 -29 191 -17 280 8 57 16 79 33 93 23 19 70 22 99 7z"/>
<path d="M3418 4710 c-22 -39 -72 -68 -130 -76 -48 -7 -48 -7 -48 -45 l0 -39
75 0 75 0 0 -215 0 -215 60 0 60 0 0 310 0 310 -37 0 c-32 0 -41 -5 -55 -30z"/>
<path d="M4675 4708 c-28 -153 -51 -309 -47 -313 3 -3 26 -5 52 -5 34 0 52 5
64 19 40 45 124 33 151 -20 32 -61 8 -161 -42 -180 -52 -20 -123 11 -123 53 0
15 -8 18 -60 18 -58 0 -60 -1 -60 -25 0 -85 94 -155 208 -155 76 0 137 30 177
88 28 41 30 50 30 137 0 88 -2 96 -30 137 -24 34 -42 47 -87 63 -57 19 -86 18
-152 -10 -17 -7 -18 -4 -11 46 4 30 9 57 12 62 2 4 60 7 129 7 l124 0 0 55 0
55 -165 0 -164 0 -6 -32z"/>
</g>
</svg>
